<svg width="19" height="22" viewBox="0 0 19 22" fill="none" xmlns="http://www.w3.org/2000/svg">
<path fill-rule="evenodd" clip-rule="evenodd" d="M9.5 22C9.5 22 18.5 16 18.5 9C18.5 6.61305 17.5518 4.32387 15.864 2.63604C14.1761 0.948211 11.8869 0 9.5 0C7.11305 0 4.82387 0.948211 3.13604 2.63604C1.44821 4.32387 0.5 6.61305 0.5 9C0.5 16 9.5 22 9.5 22ZM12.5 9C12.5 10.6569 11.1569 12 9.5 12C7.84315 12 6.5 10.6569 6.5 9C6.5 7.34315 7.84315 6 9.5 6C11.1569 6 12.5 7.34315 12.5 9Z" fill="#F5F5F5"/>
</svg>
