<svg width="25" height="24" viewBox="0 0 25 24" fill="none" xmlns="http://www.w3.org/2000/svg">
<path fill-rule="evenodd" clip-rule="evenodd" d="M21.5 6H11.32C10.91 4.84 9.8 4 8.5 4C7.2 4 6.09 4.84 5.68 6H3.5C2.95 6 2.5 6.45 2.5 7C2.5 7.55 2.95 8 3.5 8H5.68C6.09 9.17 7.2 10 8.5 10C9.8 10 10.91 9.17 11.32 8H21.5C22.05 8 22.5 7.55 22.5 7C22.5 6.45 22.05 6 21.5 6ZM8.5 8C7.95 8 7.5 7.55 7.5 7C7.5 6.45 7.95 6 8.5 6C9.05 6 9.5 6.45 9.5 7C9.5 7.55 9.05 8 8.5 8ZM21.5 12.1H19.32C18.91 10.93 17.8 10.1 16.5 10.1C15.2 10.1 14.09 10.93 13.68 12.1H3.5C2.95 12.1 2.5 12.54 2.5 13.1C2.5 13.66 2.95 14.1 3.5 14.1H13.68C14.09 15.26 15.2 16.1 16.5 16.1C17.8 16.1 18.91 15.26 19.32 14.1H21.5C22.05 14.1 22.5 13.65 22.5 13.1C22.5 12.55 22.05 12.1 21.5 12.1ZM16.5 14.1C15.95 14.1 15.5 13.65 15.5 13.1C15.5 12.55 15.95 12.1 16.5 12.1C17.05 12.1 17.5 12.54 17.5 13.1C17.5 13.66 17.05 14.1 16.5 14.1ZM14.32 18.19H21.5C22.05 18.19 22.5 18.64 22.5 19.19C22.5 19.74 22.05 20.19 21.5 20.19H14.32C13.91 21.35 12.8 22.19 11.5 22.19C10.2 22.19 9.09 21.35 8.68 20.19H3.5C2.95 20.19 2.5 19.74 2.5 19.19C2.5 18.64 2.95 18.19 3.5 18.19H8.68C9.09 17.02 10.2 16.19 11.5 16.19C12.8 16.19 13.91 17.02 14.32 18.19ZM10.5 19.19C10.5 19.74 10.95 20.19 11.5 20.19C12.05 20.19 12.5 19.74 12.5 19.19C12.5 18.64 12.05 18.19 11.5 18.19C10.95 18.19 10.5 18.64 10.5 19.19Z" fill="#353536"/>
</svg>
