<svg width="25" height="24" viewBox="0 0 25 24" fill="none" xmlns="http://www.w3.org/2000/svg">
<path fill-rule="evenodd" clip-rule="evenodd" d="M12.5 23C12.5 23 21.5 17 21.5 10C21.5 7.61305 20.5518 5.32387 18.864 3.63604C17.1761 1.94821 14.8869 1 12.5 1C10.1131 1 7.82387 1.94821 6.13604 3.63604C4.44821 5.32387 3.5 7.61305 3.5 10C3.5 17 12.5 23 12.5 23ZM15.5 10C15.5 11.6569 14.1569 13 12.5 13C10.8431 13 9.5 11.6569 9.5 10C9.5 8.34315 10.8431 7 12.5 7C14.1569 7 15.5 8.34315 15.5 10Z" fill="#F5F5F5"/>
</svg>
