<svg width="24" height="24" viewBox="0 0 24 24" fill="none" xmlns="http://www.w3.org/2000/svg">
<path fill-rule="evenodd" clip-rule="evenodd" d="M6.63229 20.9121C6.74983 20.9603 6.87857 20.9867 7.01349 20.9864C7.28474 20.9858 7.53051 20.8772 7.71026 20.7015L7.71906 20.6928L11.9609 16.4509C12.3515 16.0603 12.3515 15.4272 11.9609 15.0367C11.5704 14.6461 10.9373 14.6461 10.5467 15.0367L8.00568 17.5777L7.97455 3.99771C7.97329 3.44542 7.52455 2.99874 6.97226 3C6.41998 3.00127 5.97329 3.45001 5.97456 4.00229L6.00565 17.5666L3.47566 15.0367C3.08514 14.6461 2.45197 14.6461 2.06145 15.0367C1.67092 15.4272 1.67092 16.0603 2.06145 16.4509L6.30409 20.6935C6.40101 20.7904 6.51289 20.8633 6.63229 20.9121ZM13.0248 8.94975C12.6343 8.55923 12.6343 7.92606 13.0248 7.53554L17.2674 3.2929C17.4575 3.10283 17.7051 3.00527 17.9541 3.00021C17.9664 2.99996 17.9786 2.99994 17.9909 3.00014C18.1192 3.00219 18.2416 3.0284 18.3538 3.07442C18.4731 3.12324 18.5848 3.19606 18.6817 3.2929L22.9243 7.53554C23.3148 7.92606 23.3148 8.55923 22.9243 8.94975C22.5338 9.34028 21.9006 9.34028 21.5101 8.94975L18.9783 6.41801L18.9997 19.9984C19.0005 20.5507 18.5535 20.9991 18.0012 21C17.449 21.0009 17.0005 20.5539 16.9997 20.0016L16.9783 6.41044L14.439 8.94975C14.0485 9.34028 13.4153 9.34028 13.0248 8.94975Z" fill="#353536"/>
</svg>
